<svg version="1.1" id="Layer_1" xmlns="http://www.w3.org/2000/svg" xmlns:xlink="http://www.w3.org/1999/xlink" x="0px" y="0px"
	 width="100%" viewBox="0 0 100 100" enable-background="new 0 0 100 100" xml:space="preserve">
<path fill="#78909B" opacity="1.000000" stroke="none" 
	d="
M72.749146,42.749153 
	C77.939041,37.559174 82.895042,32.635139 87.810730,27.671188 
	C89.717201,25.745996 92.184998,24.231195 93.929764,26.857801 
	C94.833267,28.217951 94.297661,31.835669 93.054886,33.118500 
	C80.673515,45.898930 67.994072,58.390182 55.434578,70.998741 
	C52.336456,74.108978 49.386593,73.859619 46.429081,70.905220 
	C33.956947,58.446228 21.413816,46.055832 9.141517,33.402851 
	C7.818277,32.038567 6.960703,28.250744 7.845366,27.122244 
	C9.760779,24.678894 12.407969,25.840975 14.564948,28.028452 
	C26.471779,40.103611 38.453579,52.104847 50.931110,64.655937 
	C58.277882,57.278942 65.388519,50.139053 72.749146,42.749153 
z"/>
</svg>
