<svg version="1.1" id="Layer_1" xmlns="http://www.w3.org/2000/svg" xmlns:xlink="http://www.w3.org/1999/xlink" x="0px" y="0px"
	 width="100%" viewBox="0 0 100 100" enable-background="new 0 0 100 100" xml:space="preserve">
<path fill="#78909C" opacity="1.000000" stroke="none" 
	d="
M73.846329,89.000053 
	C57.556671,89.000046 41.746025,89.006943 25.935385,88.997231 
	C17.554541,88.992081 13.017028,84.581245 13.006812,76.378197 
	C12.985672,59.402584 12.981862,42.426895 13.008671,25.451300 
	C13.021203,17.515587 17.591991,13.016392 25.625826,13.006497 
	C42.601437,12.985590 59.577118,12.983827 76.552727,13.007771 
	C83.814819,13.018014 88.917168,17.884502 88.963043,25.203516 
	C89.072586,42.677753 89.060356,60.153461 88.969650,77.627914 
	C88.931007,85.072823 83.722305,88.996498 73.846329,89.000053 
M20.806341,23.653252 
	C20.542198,24.410603 20.049673,25.167297 20.047503,25.925398 
	C20.000267,42.419125 19.942610,58.913422 20.046762,75.406593 
	C20.075487,79.955055 22.477837,81.965828 27.461029,81.981293 
	C43.121758,82.029922 58.782825,82.030365 74.443558,81.982246 
	C79.848167,81.965645 81.962791,79.873703 81.980515,74.502548 
	C82.032181,58.841839 82.031334,43.180748 81.981049,27.520029 
	C81.963753,22.133993 79.859894,20.035297 74.466209,20.018259 
	C58.805485,19.968784 43.142891,19.892544 27.485510,20.126503 
	C25.327591,20.158745 23.195021,21.887487 20.806341,23.653252 
z"/>
</svg>
