<svg version="1.1" id="Layer_1" xmlns="http://www.w3.org/2000/svg" xmlns:xlink="http://www.w3.org/1999/xlink" x="0px" y="0px"
	 width="100%" viewBox="0 0 100 100" enable-background="new 0 0 100 100" xml:space="preserve">
<path fill="#78909C" opacity="1.000000" stroke="none" 
	d="
M11.022904,81.341629 
	C11.004877,66.424873 11.231504,51.943043 10.922135,37.472672 
	C10.703755,27.258221 16.518776,23.383362 25.073666,23.109745 
	C38.039719,22.695040 51.045639,22.596472 64.002731,23.133312 
	C73.947823,23.545361 78.718895,26.718775 78.950661,38.744488 
	C79.181480,50.720955 79.013962,62.705364 78.997589,74.686256 
	C78.982018,86.072960 74.166733,91.659569 62.770138,91.131126 
	C50.316792,90.553673 37.810905,90.786026 25.337818,91.082214 
	C18.177155,91.252251 13.252201,88.812416 11.022904,81.341629 
M18.000214,68.477974 
	C18.000660,71.642723 17.975172,74.807739 18.008274,77.972145 
	C18.047556,81.727287 19.951139,83.941231 23.723061,83.963829 
	C37.547607,84.046654 51.373112,84.034447 65.197876,83.972687 
	C69.036766,83.955536 71.158173,82.425209 71.083946,77.967232 
	C70.856590,64.312538 70.891907,50.650291 71.062172,36.993935 
	C71.119476,32.398361 69.231087,30.884415 64.804802,30.940029 
	C51.481560,31.107430 38.154865,30.993778 24.829529,31.003006 
	C19.002100,31.007042 18.034407,31.966854 18.010767,38.002171 
	C17.972275,47.829460 18.000275,57.657009 18.000214,68.477974 
z"/>
<path fill="#78909C" opacity="1.000000" stroke="none" 
	d="
M36.044613,18.000126 
	C32.135170,18.000126 28.717894,18.000126 24.488977,18.000126 
	C27.298206,13.620255 29.926773,10.945792 34.654324,10.971247 
	C49.640724,11.051941 64.628128,10.946110 79.614532,11.026394 
	C86.216087,11.061757 90.953484,15.941594 90.981087,22.646338 
	C91.040726,37.133369 90.831055,51.623829 91.090263,66.106468 
	C91.182228,71.245033 88.945198,74.416878 84.378906,77.359024 
	C84.224365,75.459160 84.017944,74.082275 84.015099,72.704964 
	C83.989632,60.382507 83.985962,48.059956 84.003105,35.737469 
	C84.030365,16.160532 85.833023,17.969093 66.010803,17.997667 
	C56.186146,18.011829 46.361454,18.000126 36.044613,18.000126 
z"/>
</svg>
